<mxfile host="65bd71144e">
    <diagram id="1r-3GHOlgCwtfdAHSlBe" name="Page-1">
        <mxGraphModel dx="1106" dy="545" grid="1" gridSize="10" guides="1" tooltips="1" connect="1" arrows="1" fold="1" page="1" pageScale="1" pageWidth="850" pageHeight="1100" math="0" shadow="0">
            <root>
                <mxCell id="0"/>
                <mxCell id="1" parent="0"/>
                <mxCell id="41" value="" style="rounded=1;whiteSpace=wrap;html=1;fontSize=30;fillColor=none;strokeColor=#000000;" vertex="1" parent="1">
                    <mxGeometry x="285" y="10" width="270" height="180" as="geometry"/>
                </mxCell>
                <mxCell id="43" value="" style="rounded=1;whiteSpace=wrap;html=1;fontSize=30;fillColor=none;strokeColor=#000000;" vertex="1" parent="1">
                    <mxGeometry x="700" y="50" width="260" height="190" as="geometry"/>
                </mxCell>
                <mxCell id="44" value="" style="rounded=1;whiteSpace=wrap;html=1;fontSize=30;fillColor=none;strokeColor=#000000;" vertex="1" parent="1">
                    <mxGeometry x="570" y="10" width="260" height="160" as="geometry"/>
                </mxCell>
                <mxCell id="39" value="" style="rounded=1;whiteSpace=wrap;html=1;fontSize=30;fillColor=none;strokeColor=#000000;" vertex="1" parent="1">
                    <mxGeometry x="10" y="10" width="260" height="120" as="geometry"/>
                </mxCell>
                <mxCell id="2" value="" style="rounded=1;whiteSpace=wrap;html=1;arcSize=9;strokeColor=#000000;" vertex="1" parent="1">
                    <mxGeometry x="295" y="50" width="110" height="100" as="geometry"/>
                </mxCell>
                <mxCell id="3" value="File 1" style="text;html=1;strokeColor=none;fillColor=none;align=center;verticalAlign=middle;whiteSpace=wrap;rounded=0;fontSize=30;" vertex="1" parent="1">
                    <mxGeometry x="295" y="60" width="110" height="20" as="geometry"/>
                </mxCell>
                <mxCell id="4" value="read" style="text;html=1;strokeColor=none;fillColor=none;align=center;verticalAlign=middle;whiteSpace=wrap;rounded=0;fontSize=20;" vertex="1" parent="1">
                    <mxGeometry x="330" y="90" width="40" height="20" as="geometry"/>
                </mxCell>
                <mxCell id="5" value="write" style="text;html=1;strokeColor=none;fillColor=none;align=center;verticalAlign=middle;whiteSpace=wrap;rounded=0;fontSize=20;" vertex="1" parent="1">
                    <mxGeometry x="330" y="120" width="40" height="20" as="geometry"/>
                </mxCell>
                <mxCell id="6" value="" style="rounded=1;whiteSpace=wrap;html=1;arcSize=9;strokeColor=#000000;" vertex="1" parent="1">
                    <mxGeometry x="435" y="50" width="110" height="130" as="geometry"/>
                </mxCell>
                <mxCell id="7" value="File 2" style="text;html=1;strokeColor=none;fillColor=none;align=center;verticalAlign=middle;whiteSpace=wrap;rounded=0;fontSize=30;" vertex="1" parent="1">
                    <mxGeometry x="435" y="60" width="110" height="20" as="geometry"/>
                </mxCell>
                <mxCell id="8" value="read" style="text;html=1;strokeColor=none;fillColor=none;align=center;verticalAlign=middle;whiteSpace=wrap;rounded=0;fontSize=20;" vertex="1" parent="1">
                    <mxGeometry x="470" y="90" width="40" height="20" as="geometry"/>
                </mxCell>
                <mxCell id="9" value="write" style="text;html=1;strokeColor=none;fillColor=none;align=center;verticalAlign=middle;whiteSpace=wrap;rounded=0;fontSize=20;" vertex="1" parent="1">
                    <mxGeometry x="470" y="120" width="40" height="20" as="geometry"/>
                </mxCell>
                <mxCell id="10" value="" style="rounded=1;whiteSpace=wrap;html=1;arcSize=9;strokeColor=#000000;" vertex="1" parent="1">
                    <mxGeometry x="20" y="50" width="110" height="70" as="geometry"/>
                </mxCell>
                <mxCell id="11" value="File 1" style="text;html=1;strokeColor=none;fillColor=none;align=center;verticalAlign=middle;whiteSpace=wrap;rounded=0;fontSize=30;" vertex="1" parent="1">
                    <mxGeometry x="20" y="60" width="110" height="20" as="geometry"/>
                </mxCell>
                <mxCell id="12" value="read" style="text;html=1;strokeColor=none;fillColor=none;align=center;verticalAlign=middle;whiteSpace=wrap;rounded=0;fontSize=20;" vertex="1" parent="1">
                    <mxGeometry x="55" y="90" width="40" height="20" as="geometry"/>
                </mxCell>
                <mxCell id="14" value="" style="rounded=1;whiteSpace=wrap;html=1;arcSize=9;strokeColor=#000000;" vertex="1" parent="1">
                    <mxGeometry x="150" y="50" width="110" height="70" as="geometry"/>
                </mxCell>
                <mxCell id="15" value="File 2" style="text;html=1;strokeColor=none;fillColor=none;align=center;verticalAlign=middle;whiteSpace=wrap;rounded=0;fontSize=30;" vertex="1" parent="1">
                    <mxGeometry x="150" y="60" width="110" height="20" as="geometry"/>
                </mxCell>
                <mxCell id="16" value="read" style="text;html=1;strokeColor=none;fillColor=none;align=center;verticalAlign=middle;whiteSpace=wrap;rounded=0;fontSize=20;" vertex="1" parent="1">
                    <mxGeometry x="185" y="90" width="40" height="20" as="geometry"/>
                </mxCell>
                <mxCell id="17" value="execute" style="text;html=1;strokeColor=none;fillColor=none;align=center;verticalAlign=middle;whiteSpace=wrap;rounded=0;fontSize=20;" vertex="1" parent="1">
                    <mxGeometry x="470" y="150" width="40" height="20" as="geometry"/>
                </mxCell>
                <mxCell id="18" value="" style="rounded=1;whiteSpace=wrap;html=1;arcSize=9;strokeColor=#000000;" vertex="1" parent="1">
                    <mxGeometry x="710" y="60" width="110" height="70" as="geometry"/>
                </mxCell>
                <mxCell id="19" value="File 2" style="text;html=1;strokeColor=none;fillColor=none;align=center;verticalAlign=middle;whiteSpace=wrap;rounded=0;fontSize=30;" vertex="1" parent="1">
                    <mxGeometry x="710" y="70" width="110" height="20" as="geometry"/>
                </mxCell>
                <mxCell id="20" value="execute" style="text;html=1;strokeColor=none;fillColor=none;align=center;verticalAlign=middle;whiteSpace=wrap;rounded=0;fontSize=20;" vertex="1" parent="1">
                    <mxGeometry x="745" y="100" width="40" height="20" as="geometry"/>
                </mxCell>
                <mxCell id="21" value="" style="rounded=1;whiteSpace=wrap;html=1;arcSize=9;strokeColor=#000000;" vertex="1" parent="1">
                    <mxGeometry x="580" y="60" width="110" height="100" as="geometry"/>
                </mxCell>
                <mxCell id="22" value="File 1" style="text;html=1;strokeColor=none;fillColor=none;align=center;verticalAlign=middle;whiteSpace=wrap;rounded=0;fontSize=30;" vertex="1" parent="1">
                    <mxGeometry x="580" y="70" width="110" height="20" as="geometry"/>
                </mxCell>
                <mxCell id="23" value="read" style="text;html=1;strokeColor=none;fillColor=none;align=center;verticalAlign=middle;whiteSpace=wrap;rounded=0;fontSize=20;" vertex="1" parent="1">
                    <mxGeometry x="615" y="100" width="40" height="20" as="geometry"/>
                </mxCell>
                <mxCell id="27" value="execute" style="text;html=1;strokeColor=none;fillColor=none;align=center;verticalAlign=middle;whiteSpace=wrap;rounded=0;fontSize=20;" vertex="1" parent="1">
                    <mxGeometry x="615" y="130" width="40" height="20" as="geometry"/>
                </mxCell>
                <mxCell id="34" value="" style="rounded=1;whiteSpace=wrap;html=1;arcSize=9;strokeColor=#000000;" vertex="1" parent="1">
                    <mxGeometry x="840" y="60" width="110" height="130" as="geometry"/>
                </mxCell>
                <mxCell id="35" value="File 3" style="text;html=1;strokeColor=none;fillColor=none;align=center;verticalAlign=middle;whiteSpace=wrap;rounded=0;fontSize=30;" vertex="1" parent="1">
                    <mxGeometry x="840" y="70" width="110" height="20" as="geometry"/>
                </mxCell>
                <mxCell id="36" value="read" style="text;html=1;strokeColor=none;fillColor=none;align=center;verticalAlign=middle;whiteSpace=wrap;rounded=0;fontSize=20;" vertex="1" parent="1">
                    <mxGeometry x="875" y="100" width="40" height="20" as="geometry"/>
                </mxCell>
                <mxCell id="37" value="write" style="text;html=1;strokeColor=none;fillColor=none;align=center;verticalAlign=middle;whiteSpace=wrap;rounded=0;fontSize=20;" vertex="1" parent="1">
                    <mxGeometry x="875" y="130" width="40" height="20" as="geometry"/>
                </mxCell>
                <mxCell id="38" value="execute" style="text;html=1;strokeColor=none;fillColor=none;align=center;verticalAlign=middle;whiteSpace=wrap;rounded=0;fontSize=20;" vertex="1" parent="1">
                    <mxGeometry x="875" y="160" width="40" height="20" as="geometry"/>
                </mxCell>
                <mxCell id="40" value="Domain A" style="text;html=1;strokeColor=none;fillColor=none;align=center;verticalAlign=middle;whiteSpace=wrap;rounded=0;fontSize=30;" vertex="1" parent="1">
                    <mxGeometry x="20" y="20" width="240" height="20" as="geometry"/>
                </mxCell>
                <mxCell id="42" value="Domain A" style="text;html=1;strokeColor=none;fillColor=none;align=center;verticalAlign=middle;whiteSpace=wrap;rounded=0;fontSize=30;" vertex="1" parent="1">
                    <mxGeometry x="300" y="20" width="240" height="20" as="geometry"/>
                </mxCell>
                <mxCell id="45" value="Domain C" style="text;html=1;strokeColor=none;fillColor=none;align=center;verticalAlign=middle;whiteSpace=wrap;rounded=0;fontSize=30;" vertex="1" parent="1">
                    <mxGeometry x="580" y="20" width="240" height="20" as="geometry"/>
                </mxCell>
                <mxCell id="46" value="Domain D" style="text;html=1;strokeColor=none;fillColor=none;align=center;verticalAlign=middle;whiteSpace=wrap;rounded=0;fontSize=30;" vertex="1" parent="1">
                    <mxGeometry x="710" y="210" width="240" height="20" as="geometry"/>
                </mxCell>
            </root>
        </mxGraphModel>
    </diagram>
</mxfile>